<?xml version="1.0" standalone="no"?>
<!DOCTYPE svg PUBLIC "-//W3C//DTD SVG 20010904//EN"
 "http://www.w3.org/TR/2001/REC-SVG-20010904/DTD/svg10.dtd">
<svg version="1.0" xmlns="http://www.w3.org/2000/svg"
 width="225.000000pt" height="225.000000pt" viewBox="0 0 225.000000 225.000000"
 preserveAspectRatio="xMidYMid meet">

<g transform="translate(0.000000,225.000000) scale(0.100000,-0.100000)"
fill="#000000" stroke="none">
<path d="M975 2239 c-591 -74 -1031 -633 -966 -1228 35 -323 192 -597 455
-793 384 -286 938 -286 1322 0 326 243 498 628 455 1021 -68 635 -631 1079
-1266 1000z m558 -552 c18 -8 67 -49 109 -91 90 -89 108 -132 88 -201 -16 -53
-303 -347 -368 -377 -53 -24 -109 -17 -151 18 -24 20 -31 21 -40 10 -9 -10 -5
-24 14 -57 27 -47 31 -91 15 -136 -13 -32 -311 -337 -352 -359 -34 -18 -111
-18 -146 0 -15 8 -59 47 -98 88 -85 87 -103 129 -84 198 10 37 36 69 158 193
172 174 211 202 281 195 28 -3 62 -14 80 -27 25 -18 35 -20 46 -11 13 11 11
16 -10 41 -31 38 -41 90 -25 142 10 33 45 74 163 194 186 189 234 216 320 180z"/>
<path d="M1307 1432 c-99 -99 -147 -154 -147 -169 0 -38 21 -36 64 6 l42 41
37 -38 c20 -21 37 -42 37 -48 0 -6 -16 -25 -35 -44 -41 -40 -42 -46 -14 -55
18 -6 47 18 175 146 85 85 154 160 154 167 0 23 -121 142 -144 142 -14 0 -72
-51 -169 -148z"/>
<path d="M777 902 c-81 -81 -147 -154 -147 -163 0 -15 131 -149 146 -149 16 0
314 305 314 321 0 29 -20 32 -46 8 l-25 -23 -41 42 -42 41 23 25 c26 27 21 46
-12 46 -15 0 -69 -47 -170 -148z"/>
</g>
</svg>
